# cube model
v -0.5 -0.5 0.5
v 0.5 -0.5 0.5
v -0.5 0.5 0.5
v 0.5 0.5 0.5
v -0.5 -0.5 -0.5
v 0.5 -0.5 -0.5
v -0.5 0.5 -0.5
v 0.5 0.5 -0.5
vt 0.00390625 0.00390625
vt 0.99609375 0.00390625
vt 0.00390625 0.99609375
vt 0.99609375 0.99609375
vn 0 0 1
vn 1 0 0
vn 0 0 -1
vn -1 0 0
vn 0 1 0
vn 0 -1 0
f 1/1/1 2/2/1 3/3/
f 3/3/1 2/2/1 4/4/1
f 2/1/2 6/2/2 4/3/2
f 4/3/2 6/2/2 8/4/2
f 6/1/3 5/2/3 8/3/3
f 8/3/3 5/2/3 7/4/3
f 5/1/4 1/2/4 7/3/4
f 7/3/4 1/2/4 3/4/4
f 3/1/5 4/2/5 7/3/5
f 7/3/5 4/2/5 8/4/5
f 5/1/6 6/2/6 1/3/6
f 1/3/6 6/2/6 2/4/6